{
  "accessors": [
    {
      "bufferView": 3,
      "componentType": 5126,
      "count": 675,
      "max": [
        0.02082451991736889,
        0.05038275569677353,
        0.5382703542709351
      ],
      "min": [
        -0.01924552395939827,
        -0.15624479949474335,
        -0.5700496435165405
      ],
      "type": "VEC3"
    },
    {
      "bufferView": 3,
      "byteOffset": 8100,
      "componentType": 5126,
      "count": 675,
      "max": [
        1.0,
        1.0,
        1.0
      ],
      "min": [
        -1.0,
        -1.0,
        -1.0
      ],
      "type": "VEC3"
    },
    {
      "bufferView": 2,
      "componentType": 5126,
      "count": 675,
      "max": [
        0.9924858808517456,
        0.9967188835144043
      ],
      "min": [
        0.007022192236036062,
        0.02012181282043457
      ],
      "type": "VEC2"
    },
    {
      "bufferView": 1,
      "componentType": 5125,
      "count": 1821,
      "type": "SCALAR"
    },
    {
      "bufferView": 5,
      "componentType": 5126,
      "count": 5,
      "max": [
        1.0,
        6.447563972522899e-14,
        0.0,
        0.0,
        0.0,
        1.0,
        0.0,
        0.0,
        6.163544338539523e-14,
        1.0,
        1.0,
        0.0,
        4.049543278483725e-08,
        0.06541761755943298,
        0.0366583988070488,
        1.0
      ],
      "min": [
        1.0,
        0.0,
        -1.4305115882962127e-06,
        0.0,
        -1.104670104723482e-06,
        -0.9474770426750183,
        -1.0,
        0.0,
        -1.355376639367023e-06,
        0.0,
        -0.9474770426750183,
        0.0,
        -2.4871442860785464e-07,
        -0.16589832305908203,
        -0.17386400699615479,
        1.0
      ],
      "type": "MAT4"
    },
    {
      "bufferView": 0,
      "componentType": 5123,
      "count": 675,
      "type": "VEC4"
    },
    {
      "bufferView": 4,
      "componentType": 5126,
      "count": 675,
      "max": [
        1.0,
        0.0,
        0.0,
        0.0
      ],
      "min": [
        1.0,
        0.0,
        0.0,
        0.0
      ],
      "type": "VEC4"
    }
  ],
  "asset": {
    "extras": {
      "author": "Charckes (https://sketchfab.com/charlesmoch)",
      "license": "SKETCHFAB Standard (https://sketchfab.com/licenses)",
      "source": "https://sketchfab.com/3d-models/shotgun-63fd630ab02341c09c5bb50f055f5e6a",
      "title": "Shotgun"
    },
    "generator": "Sketchfab-16.68.0",
    "version": "2.0"
  },
  "bufferViews": [
    {
      "buffer": 0,
      "byteLength": 5400,
      "byteStride": 8,
      "name": "shortBufferViews",
      "target": 34962
    },
    {
      "buffer": 0,
      "byteLength": 7284,
      "byteOffset": 5400,
      "name": "floatBufferViews",
      "target": 34963
    },
    {
      "buffer": 0,
      "byteLength": 5400,
      "byteOffset": 12684,
      "byteStride": 8,
      "name": "floatBufferViews",
      "target": 34962
    },
    {
      "buffer": 0,
      "byteLength": 16200,
      "byteOffset": 18084,
      "byteStride": 12,
      "name": "floatBufferViews",
      "target": 34962
    },
    {
      "buffer": 0,
      "byteLength": 10800,
      "byteOffset": 34284,
      "byteStride": 16,
      "name": "floatBufferViews",
      "target": 34962
    },
    {
      "buffer": 0,
      "byteLength": 320,
      "byteOffset": 45084,
      "name": "floatBufferViews"
    }
  ],
  "buffers": [
    {
      "byteLength": 45404,
      "uri": "scene.bin"
    }
  ],
  "images": [
    {
      "uri": "textures/M_PSX_Shotgun_baseColor.png"
    }
  ],
  "materials": [
    {
      "doubleSided": true,
      "name": "M_PSX_Shotgun",
      "pbrMetallicRoughness": {
        "baseColorTexture": {
          "index": 0
        },
        "metallicFactor": 0.0,
        "roughnessFactor": 0.5
      }
    }
  ],
  "meshes": [
    {
      "name": "Object_0",
      "primitives": [
        {
          "attributes": {
            "JOINTS_0": 5,
            "NORMAL": 1,
            "POSITION": 0,
            "TEXCOORD_0": 2,
            "WEIGHTS_0": 6
          },
          "indices": 3,
          "material": 0,
          "mode": 4
        }
      ]
    }
  ],
  "nodes": [
    {
      "children": [
        1
      ],
      "matrix": [
        1.0,
        0.0,
        0.0,
        0.0,
        0.0,
        2.220446049250313e-16,
        -1.0,
        0.0,
        0.0,
        1.0,
        2.220446049250313e-16,
        0.0,
        0.0,
        0.0,
        0.0,
        1.0
      ],
      "name": "Sketchfab_model"
    },
    {
      "children": [
        2
      ],
      "name": "root"
    },
    {
      "children": [
        3
      ],
      "matrix": [
        1.0,
        0.0,
        0.0,
        0.0,
        0.0,
        2.220446049250313e-16,
        1.0,
        0.0,
        0.0,
        -1.0,
        2.220446049250313e-16,
        0.0,
        0.0,
        0.0,
        0.0,
        1.0
      ],
      "name": "GLTF_SceneRootNode"
    },
    {
      "children": [
        4
      ],
      "name": "Armature_PSX_Shotgun_5"
    },
    {
      "children": [
        5,
        7,
        6
      ],
      "name": "GLTF_created_0"
    },
    {
      "children": [
        8
      ],
      "name": "GLTF_created_0_rootJoint"
    },
    {
      "name": "SM_PSX_Shotgun_4"
    },
    {
      "mesh": 0,
      "name": "Object_7",
      "skin": 0
    },
    {
      "children": [
        9,
        10,
        11
      ],
      "name": "Root_3",
      "rotation": [
        0.7071066498756409,
        -3.062661164676683e-07,
        -3.062661164676683e-07,
        0.70710688829422
      ],
      "translation": [
        1.0706382633242069e-16,
        2.8638169169425964e-08,
        -0.061428964138031006
      ]
    },
    {
      "name": "Eject_0",
      "rotation": [
        4.268982678468092e-08,
        -1.1920928955078125e-07,
        -4.580121614546247e-14,
        1.0
      ],
      "translation": [
        -3.175536633648335e-08,
        -0.0039886487647891045,
        -0.03665836527943611
      ]
    },
    {
      "name": "Handguard_1",
      "rotation": [
        3.7303209410310956e-08,
        -1.1920928955078125e-07,
        -8.366115620910518e-15,
        1.0
      ],
      "translation": [
        1.2765621689608299e-14,
        0.22732728719711304,
        2.7361263477132525e-08
      ]
    },
    {
      "name": "Trigger_2",
      "rotation": [
        0.5831707119941711,
        -2.291880747407049e-07,
        -6.697025014545943e-07,
        0.8123496174812317
      ],
      "translation": [
        1.1611613004447463e-08,
        -0.11754840612411499,
        0.013404426164925098
      ]
    }
  ],
  "samplers": [
    {
      "magFilter": 9728,
      "minFilter": 9728,
      "wrapS": 10497,
      "wrapT": 10497
    }
  ],
  "scene": 0,
  "scenes": [
    {
      "name": "Sketchfab_Scene",
      "nodes": [
        0
      ]
    }
  ],
  "skins": [
    {
      "inverseBindMatrices": 4,
      "joints": [
        5,
        8,
        9,
        10,
        11
      ],
      "skeleton": 5
    }
  ],
  "textures": [
    {
      "sampler": 0,
      "source": 0
    }
  ]
}
